<mxfile host="app.diagrams.net" agent="Mozilla/5.0 (Windows NT 10.0; Win64; x64) AppleWebKit/537.36 (KHTML, like Gecko) Chrome/130.0.0.0 Safari/537.36" version="24.8.6">
  <diagram id="C5RBs43oDa-KdzZeNtuy" name="Page-1">
    <mxGraphModel dx="942" dy="365" grid="1" gridSize="10" guides="1" tooltips="1" connect="1" arrows="1" fold="1" page="1" pageScale="1" pageWidth="827" pageHeight="1169" math="0" shadow="0">
      <root>
        <mxCell id="WIyWlLk6GJQsqaUBKTNV-0" />
        <mxCell id="WIyWlLk6GJQsqaUBKTNV-1" parent="WIyWlLk6GJQsqaUBKTNV-0" />
        <mxCell id="WIyWlLk6GJQsqaUBKTNV-2" value="" style="rounded=0;html=1;jettySize=auto;orthogonalLoop=1;fontSize=11;endArrow=block;endFill=0;endSize=8;strokeWidth=1;shadow=0;labelBackgroundColor=none;edgeStyle=orthogonalEdgeStyle;" parent="WIyWlLk6GJQsqaUBKTNV-1" source="WIyWlLk6GJQsqaUBKTNV-3" target="WIyWlLk6GJQsqaUBKTNV-6" edge="1">
          <mxGeometry relative="1" as="geometry" />
        </mxCell>
        <mxCell id="WIyWlLk6GJQsqaUBKTNV-3" value="OPEN THE PROJECT" style="rounded=1;whiteSpace=wrap;html=1;fontSize=12;glass=0;strokeWidth=1;shadow=0;" parent="WIyWlLk6GJQsqaUBKTNV-1" vertex="1">
          <mxGeometry x="160" y="80" width="120" height="40" as="geometry" />
        </mxCell>
        <mxCell id="eX477xmgtO2ZwgwVs7le-0" style="edgeStyle=orthogonalEdgeStyle;rounded=0;orthogonalLoop=1;jettySize=auto;html=1;" edge="1" parent="WIyWlLk6GJQsqaUBKTNV-1" source="WIyWlLk6GJQsqaUBKTNV-6">
          <mxGeometry relative="1" as="geometry">
            <mxPoint x="220" y="320" as="targetPoint" />
          </mxGeometry>
        </mxCell>
        <mxCell id="WIyWlLk6GJQsqaUBKTNV-6" value="&lt;font style=&quot;font-size: 14px;&quot;&gt;&lt;b&gt;PROCEED&lt;/b&gt;&lt;/font&gt;" style="rhombus;whiteSpace=wrap;html=1;shadow=0;fontFamily=Helvetica;fontSize=12;align=center;strokeWidth=1;spacing=6;spacingTop=-4;" parent="WIyWlLk6GJQsqaUBKTNV-1" vertex="1">
          <mxGeometry x="170" y="190" width="100" height="80" as="geometry" />
        </mxCell>
        <mxCell id="WIyWlLk6GJQsqaUBKTNV-7" value="&lt;b&gt;SELECT THE LANGUAGE&lt;/b&gt;" style="rounded=1;whiteSpace=wrap;html=1;fontSize=12;glass=0;strokeWidth=1;shadow=0;" parent="WIyWlLk6GJQsqaUBKTNV-1" vertex="1">
          <mxGeometry x="340" y="200" width="110" height="40" as="geometry" />
        </mxCell>
        <mxCell id="vbYsYdinFGc0wG3Eau9G-1" value="&lt;font style=&quot;font-size: 18px;&quot;&gt;OPEN THE PROJECT&lt;/font&gt;" style="rounded=0;whiteSpace=wrap;html=1;" parent="WIyWlLk6GJQsqaUBKTNV-1" vertex="1">
          <mxGeometry x="160" y="70" width="120" height="60" as="geometry" />
        </mxCell>
        <mxCell id="vbYsYdinFGc0wG3Eau9G-16" value="" style="endArrow=classic;html=1;rounded=0;" parent="WIyWlLk6GJQsqaUBKTNV-1" edge="1">
          <mxGeometry width="50" height="50" relative="1" as="geometry">
            <mxPoint x="270" y="229" as="sourcePoint" />
            <mxPoint x="340" y="229" as="targetPoint" />
          </mxGeometry>
        </mxCell>
        <mxCell id="vbYsYdinFGc0wG3Eau9G-17" value="&lt;b&gt;YES&lt;/b&gt;" style="edgeLabel;html=1;align=center;verticalAlign=middle;resizable=0;points=[];" parent="vbYsYdinFGc0wG3Eau9G-16" vertex="1" connectable="0">
          <mxGeometry x="-0.2042" y="4" relative="1" as="geometry">
            <mxPoint x="-8" y="-16" as="offset" />
          </mxGeometry>
        </mxCell>
        <mxCell id="vbYsYdinFGc0wG3Eau9G-18" value="" style="endArrow=classic;html=1;rounded=0;exitX=1;exitY=0.5;exitDx=0;exitDy=0;entryX=0;entryY=0.5;entryDx=0;entryDy=0;" parent="WIyWlLk6GJQsqaUBKTNV-1" source="WIyWlLk6GJQsqaUBKTNV-7" edge="1" target="vbYsYdinFGc0wG3Eau9G-19">
          <mxGeometry width="50" height="50" relative="1" as="geometry">
            <mxPoint x="340" y="260" as="sourcePoint" />
            <mxPoint x="510" y="210" as="targetPoint" />
            <Array as="points" />
          </mxGeometry>
        </mxCell>
        <mxCell id="vbYsYdinFGc0wG3Eau9G-20" style="edgeStyle=orthogonalEdgeStyle;rounded=0;orthogonalLoop=1;jettySize=auto;html=1;entryX=0;entryY=0.5;entryDx=0;entryDy=0;" parent="WIyWlLk6GJQsqaUBKTNV-1" source="vbYsYdinFGc0wG3Eau9G-19" target="vbYsYdinFGc0wG3Eau9G-21" edge="1">
          <mxGeometry relative="1" as="geometry">
            <mxPoint x="660" y="212.5" as="targetPoint" />
          </mxGeometry>
        </mxCell>
        <mxCell id="vbYsYdinFGc0wG3Eau9G-19" value="&lt;b&gt;SELECT THE SINGER&lt;/b&gt;" style="rounded=1;whiteSpace=wrap;html=1;" parent="WIyWlLk6GJQsqaUBKTNV-1" vertex="1">
          <mxGeometry x="510" y="197.5" width="100" height="45" as="geometry" />
        </mxCell>
        <mxCell id="vbYsYdinFGc0wG3Eau9G-26" style="edgeStyle=orthogonalEdgeStyle;rounded=0;orthogonalLoop=1;jettySize=auto;html=1;" parent="WIyWlLk6GJQsqaUBKTNV-1" source="vbYsYdinFGc0wG3Eau9G-21" edge="1">
          <mxGeometry relative="1" as="geometry">
            <mxPoint x="720" y="290" as="targetPoint" />
          </mxGeometry>
        </mxCell>
        <mxCell id="vbYsYdinFGc0wG3Eau9G-27" value="&lt;b&gt;PRESS ENTER&lt;/b&gt;" style="edgeLabel;html=1;align=center;verticalAlign=middle;resizable=0;points=[];" parent="vbYsYdinFGc0wG3Eau9G-26" vertex="1" connectable="0">
          <mxGeometry x="0.0112" relative="1" as="geometry">
            <mxPoint as="offset" />
          </mxGeometry>
        </mxCell>
        <mxCell id="vbYsYdinFGc0wG3Eau9G-21" value="&lt;b&gt;EXPRESS YOUR EMOTION&lt;/b&gt;" style="rounded=1;whiteSpace=wrap;html=1;" parent="WIyWlLk6GJQsqaUBKTNV-1" vertex="1">
          <mxGeometry x="675" y="195" width="100" height="50" as="geometry" />
        </mxCell>
        <mxCell id="vbYsYdinFGc0wG3Eau9G-22" value="&lt;b&gt;PRESS&amp;nbsp;&lt;/b&gt;&lt;div&gt;&lt;b&gt;ENTER&lt;/b&gt;&lt;/div&gt;" style="text;html=1;align=center;verticalAlign=middle;resizable=0;points=[];autosize=1;strokeColor=none;fillColor=none;" parent="WIyWlLk6GJQsqaUBKTNV-1" vertex="1">
          <mxGeometry x="440" y="180" width="70" height="40" as="geometry" />
        </mxCell>
        <mxCell id="vbYsYdinFGc0wG3Eau9G-23" value="&lt;b&gt;PRESS&lt;br&gt;ENTER&lt;/b&gt;" style="text;html=1;align=center;verticalAlign=middle;resizable=0;points=[];autosize=1;strokeColor=none;fillColor=none;" parent="WIyWlLk6GJQsqaUBKTNV-1" vertex="1">
          <mxGeometry x="610" y="180" width="60" height="40" as="geometry" />
        </mxCell>
        <mxCell id="vbYsYdinFGc0wG3Eau9G-29" style="edgeStyle=orthogonalEdgeStyle;rounded=0;orthogonalLoop=1;jettySize=auto;html=1;exitX=0.5;exitY=1;exitDx=0;exitDy=0;" parent="WIyWlLk6GJQsqaUBKTNV-1" edge="1">
          <mxGeometry relative="1" as="geometry">
            <mxPoint x="220" y="150" as="targetPoint" />
            <Array as="points">
              <mxPoint x="715" y="380" />
              <mxPoint x="801" y="380" />
              <mxPoint x="801" y="150" />
              <mxPoint x="280" y="150" />
            </Array>
            <mxPoint x="715" y="360" as="sourcePoint" />
          </mxGeometry>
        </mxCell>
        <mxCell id="vbYsYdinFGc0wG3Eau9G-30" value="&lt;b&gt;&lt;font style=&quot;font-size: 14px;&quot;&gt;REFRESH THE PROJECT WEB PAGE&lt;/font&gt;&lt;/b&gt;" style="text;html=1;align=center;verticalAlign=middle;resizable=0;points=[];autosize=1;strokeColor=none;fillColor=none;" parent="WIyWlLk6GJQsqaUBKTNV-1" vertex="1">
          <mxGeometry x="385" y="110" width="270" height="30" as="geometry" />
        </mxCell>
        <mxCell id="eX477xmgtO2ZwgwVs7le-1" value="&lt;b&gt;NO&lt;/b&gt;" style="text;html=1;align=center;verticalAlign=middle;resizable=0;points=[];autosize=1;strokeColor=none;fillColor=none;" vertex="1" parent="WIyWlLk6GJQsqaUBKTNV-1">
          <mxGeometry x="220" y="268" width="40" height="30" as="geometry" />
        </mxCell>
        <mxCell id="eX477xmgtO2ZwgwVs7le-2" value="&lt;b style=&quot;&quot;&gt;&lt;font style=&quot;font-size: 18px; background-color: rgb(221, 153, 240);&quot;&gt;CLOSE THE PROJECT&lt;/font&gt;&lt;/b&gt;" style="ellipse;whiteSpace=wrap;html=1;" vertex="1" parent="WIyWlLk6GJQsqaUBKTNV-1">
          <mxGeometry x="160" y="320" width="130" height="80" as="geometry" />
        </mxCell>
        <mxCell id="eX477xmgtO2ZwgwVs7le-3" value="&lt;span style=&quot;font-size: 18px; background-color: rgb(81, 210, 137);&quot;&gt;OUTPUT APPEARS&lt;/span&gt;" style="ellipse;whiteSpace=wrap;html=1;" vertex="1" parent="WIyWlLk6GJQsqaUBKTNV-1">
          <mxGeometry x="665" y="280" width="120" height="80" as="geometry" />
        </mxCell>
      </root>
    </mxGraphModel>
  </diagram>
</mxfile>
